<svg viewBox="0 0 242.31 242.31" xmlns="http://www.w3.org/2000/svg"><circle cx="121.16" cy="121.16" fill="#bf6b5d" r="121.16"/><g fill="#93a0a1"><path d="m112.45 59.83a21 21 0 0 1 8.22 8.17 24.2 24.2 0 0 1 3 12.13 24.41 24.41 0 0 1 -3 12.17 21 21 0 0 1 -8.22 8.22 23.92 23.92 0 0 1 -11.87 2.92 21.17 21.17 0 0 1 -9-1.89 18.68 18.68 0 0 1 -6.91-5.55v23.58h-8.26v-62.25h7.91v7.23a17.6 17.6 0 0 1 7-5.72 22 22 0 0 1 9.29-1.94 23.93 23.93 0 0 1 11.84 2.93zm-4.68 34.37a14.59 14.59 0 0 0 5.5-5.68 18.43 18.43 0 0 0 0-16.78 14.26 14.26 0 0 0 -5.5-5.63 15.69 15.69 0 0 0 -7.88-2 15.2 15.2 0 0 0 -7.78 2 14.76 14.76 0 0 0 -5.51 5.63 16.81 16.81 0 0 0 -2 8.35 17.36 17.36 0 0 0 2 8.39 14.19 14.19 0 0 0 5.5 5.68 16.28 16.28 0 0 0 15.71 0z"/><path d="m165.91 126.15v39.41q0 12-5.94 17.67t-17.72 5.77a42.24 42.24 0 0 1 -12.3-1.77 24.31 24.31 0 0 1 -9.47-5l4-6.37a23.29 23.29 0 0 0 7.87 4.35 30 30 0 0 0 9.68 1.59q8 0 11.83-3.79t3.83-11.52v-3.69a18.25 18.25 0 0 1 -7.19 5.29 23.81 23.81 0 0 1 -9.24 1.77 24.83 24.83 0 0 1 -11.83-2.8 20.67 20.67 0 0 1 -8.3-7.83 23.42 23.42 0 0 1 0-23 20.42 20.42 0 0 1 8.3-7.78 25.17 25.17 0 0 1 11.83-2.76 24.21 24.21 0 0 1 9.59 1.9 17.76 17.76 0 0 1 7.27 5.59v-7.06zm-15.7 34.59a14 14 0 0 0 5.59-5.29 14.75 14.75 0 0 0 2-7.7 13.93 13.93 0 0 0 -4.37-10.75 17.68 17.68 0 0 0 -22.62 0 13.93 13.93 0 0 0 -4.39 10.71 14.75 14.75 0 0 0 2 7.7 14 14 0 0 0 5.59 5.29 18.26 18.26 0 0 0 16.18 0z"/><path d="m151.27 81.5a8.2 8.2 0 0 1 -2.45 6.06 8.11 8.11 0 0 1 -6 2.45 8.47 8.47 0 0 1 -3.27-.64 8.32 8.32 0 0 1 -2.71-1.81 9 9 0 0 1 -1.84-2.71 8.29 8.29 0 0 1 -.68-3.35 8.08 8.08 0 0 1 .68-3.27 8.85 8.85 0 0 1 4.56-4.56 8.09 8.09 0 0 1 6.54 0 8.81 8.81 0 0 1 2.71 1.85 8.21 8.21 0 0 1 1.81 2.71 8.4 8.4 0 0 1 .65 3.27z"/><path d="m76.69 161v-8.52h25.72v8.52z"/></g></svg>