<svg viewBox="0 0 597 424" xmlns="http://www.w3.org/2000/svg" xmlns:xlink="http://www.w3.org/1999/xlink"><clipPath id="a"><path d="m81.45 113.21c-2.23-49.11 32.39-92.42 81-99.86a261.66 261.66 0 0 1 74.55-.57s81.48 13.48 111 66.85 39 66.37 64.69 82.37 80.31 32 103.11 29.33 69.51 6.53 70.87 49.86 12 70.77-21.71 113.9-82.74 37.91-115.28 31.69-87.68-48.89-130.16-26.92-79.52 54.58-134.66 46.92-137.86-33.59-152.79-57.2-22.63-96.16 23.07-134.4c24.1-20.18 28-64.53 26.31-101.97z"/></clipPath><g clip-path="url(#a)" fill="#c8492f"><circle cx="287.23" cy=".56" r="5.98"/><circle cx="313.18" cy="2.23" r="5.98"/><circle cx="299.63" cy="26.64" r="5.98"/><circle cx="319.94" cy="33.94" r="5.98"/><circle cx="333.11" cy="15.49" r="5.98"/><circle cx="359.49" cy="20.28" r="5.98"/><circle cx="350.67" cy="39.38" r="5.98"/><circle cx="324.33" cy="58.75" r="5.98"/><circle cx="300.99" cy="57.24" r="5.98"/><circle cx="281.65" cy="50.01" r="5.98"/><circle cx="281.43" cy="28.93" r="5.98"/><circle cx="260.97" cy="27.61" r="5.98"/><circle cx="265.36" cy="5.14" r="5.98"/><circle cx="233.95" cy="16.42" r="5.98"/><circle cx="230.6" cy="48.94" r="5.98"/><circle cx="221.13" cy="64.19" r="5.98"/><circle cx="207.55" cy="45.23" r="5.98"/><circle cx="221.37" cy="30.45" r="5.98"/><circle cx="212.2" cy="16.78" r="5.98"/><circle cx="184.83" cy="49.37" r="5.98"/><circle cx="163.12" cy="55.62" r="5.98"/><circle cx="166.29" cy="68.82" r="5.98"/><circle cx="243.78" cy="49.79" r="5.98"/><circle cx="262.14" cy="58.83" r="5.98"/><circle cx="282.23" cy="78.1" r="5.98"/><circle cx="299.85" cy="74.86" r="5.98"/><circle cx="326.54" cy="79.15" r="5.98"/><circle cx="342.14" cy="65.35" r="5.98"/><circle cx="364.82" cy="55.36" r="5.98"/><circle cx="363.55" cy="76.82" r="5.98"/><circle cx="382.69" cy="60" r="5.98"/><circle cx="392.67" cy="49.69" r="5.98"/><circle cx="409.96" cy="52.28" r="5.98"/><circle cx="402.98" cy="69.27" r="5.98"/><circle cx="426.94" cy="67.57" r="5.98"/><circle cx="443.03" cy="78.48" r="5.98"/><circle cx="368.9" cy="37.09" r="5.98"/><circle cx="394.71" cy="32.23" r="5.98"/><circle cx="382.92" cy="16.99" r="5.98"/><circle cx="363.45" cy="-.52" r="5.98"/><circle cx="344.28" cy="-4.71" r="5.98"/><circle cx="179.51" cy="75.95" r="5.98"/><circle cx="205.47" cy="77.62" r="5.98"/><circle cx="191.92" cy="102.03" r="5.98"/><circle cx="212.23" cy="109.33" r="5.98"/><circle cx="225.4" cy="90.88" r="5.98"/><circle cx="251.77" cy="95.67" r="5.98"/><circle cx="242.96" cy="114.77" r="5.98"/><circle cx="216.62" cy="134.14" r="5.98"/><circle cx="193.27" cy="132.63" r="5.98"/><circle cx="173.94" cy="125.4" r="5.98"/><circle cx="173.72" cy="104.32" r="5.98"/><circle cx="153.26" cy="103" r="5.98"/><circle cx="157.64" cy="80.53" r="5.98"/><circle cx="126.24" cy="91.81" r="5.98"/><circle cx="122.89" cy="124.33" r="5.98"/><circle cx="136.07" cy="125.18" r="5.98"/><circle cx="154.43" cy="134.23" r="5.98"/><circle cx="147.19" cy="149.92" r="5.98"/><circle cx="161.98" cy="163.19" r="5.98"/><circle cx="140.81" cy="170.12" r="5.98"/><circle cx="183.33" cy="165.66" r="5.98"/><circle cx="206.66" cy="166.07" r="5.98"/><circle cx="222.45" cy="175.37" r="5.98"/><circle cx="168.92" cy="178.71" r="5.98"/><circle cx="159.97" cy="194.33" r="5.98"/><circle cx="152.11" cy="214.1" r="5.98"/><circle cx="185.45" cy="193.59" r="5.98"/><circle cx="187.99" cy="214.68" r="5.98"/><circle cx="192.41" cy="178.46" r="5.98"/><circle cx="206.28" cy="201.71" r="5.98"/><circle cx="127.47" cy="146.09" r="5.98"/><circle cx="174.52" cy="153.49" r="5.98"/><circle cx="192.14" cy="150.25" r="5.98"/><circle cx="218.83" cy="154.54" r="5.98"/><circle cx="234.43" cy="140.74" r="5.98"/><circle cx="257.1" cy="130.76" r="5.98"/><circle cx="261.19" cy="112.48" r="5.98"/><circle cx="287" cy="107.62" r="5.98"/><circle cx="275.21" cy="92.38" r="5.98"/><circle cx="255.74" cy="74.87" r="5.98"/><circle cx="236.57" cy="70.68" r="5.98"/><circle cx="194.99" cy="62.51" r="5.98"/><circle cx="372.38" cy="94.42" r="5.98"/><circle cx="398.33" cy="96.09" r="5.98"/><circle cx="384.78" cy="120.5" r="5.98"/><circle cx="405.1" cy="127.79" r="5.98"/><circle cx="418.26" cy="109.35" r="5.98"/><circle cx="444.64" cy="114.14" r="5.98"/><circle cx="435.82" cy="133.23" r="5.98"/><circle cx="409.49" cy="152.6" r="5.98"/><circle cx="386.14" cy="151.1" r="5.98"/><circle cx="366.81" cy="143.87" r="5.98"/><circle cx="366.58" cy="122.78" r="5.98"/><circle cx="346.12" cy="121.47" r="5.98"/><circle cx="350.51" cy="99" r="5.98"/><circle cx="318.51" cy="99.97" r="5.98"/><circle cx="331.3" cy="106.84" r="5.98"/><circle cx="343.3" cy="86.56" r="5.98"/><circle cx="316.48" cy="131.54" r="5.98"/><circle cx="305.86" cy="115.8" r="5.98"/><circle cx="306.28" cy="158.05" r="5.98"/><circle cx="292.7" cy="139.09" r="5.98"/><circle cx="285.06" cy="123.52" r="5.98"/><circle cx="295.27" cy="93.67" r="5.98"/><circle cx="269.98" cy="143.23" r="5.98"/><circle cx="248.27" cy="149.47" r="5.98"/><circle cx="251.44" cy="162.68" r="5.98"/><circle cx="328.93" cy="143.64" r="5.98"/><circle cx="347.29" cy="152.69" r="5.98"/><circle cx="367.38" cy="171.96" r="5.98"/><circle cx="385" cy="168.72" r="5.98"/><circle cx="411.7" cy="173" r="5.98"/><circle cx="427.29" cy="159.21" r="5.98"/><circle cx="449.97" cy="149.22" r="5.98"/><circle cx="454.06" cy="130.95" r="5.98"/><circle cx="479.87" cy="126.09" r="5.98"/><circle cx="468.07" cy="110.85" r="5.98"/><circle cx="448.6" cy="93.34" r="5.98"/><circle cx="429.43" cy="89.15" r="5.98"/><circle cx="387.86" cy="80.97" r="5.98"/><circle cx="264.67" cy="169.81" r="5.98"/><circle cx="290.62" cy="171.48" r="5.98"/><circle cx="277.07" cy="195.89" r="5.98"/><circle cx="297.38" cy="203.19" r="5.98"/><circle cx="310.55" cy="184.74" r="5.98"/><circle cx="336.92" cy="189.53" r="5.98"/><circle cx="328.11" cy="208.63" r="5.98"/><circle cx="301.77" cy="228" r="5.98"/><circle cx="278.43" cy="226.49" r="5.98"/><circle cx="259.09" cy="219.26" r="5.98"/><circle cx="258.87" cy="198.18" r="5.98"/><circle cx="238.41" cy="196.86" r="5.98"/><circle cx="242.8" cy="174.39" r="5.98"/><circle cx="211.39" cy="185.67" r="5.98"/><circle cx="208.04" cy="218.19" r="5.98"/><circle cx="221.22" cy="219.04" r="5.98"/><circle cx="239.58" cy="228.08" r="5.98"/><circle cx="259.67" cy="247.35" r="5.98"/><circle cx="277.29" cy="244.11" r="5.98"/><circle cx="303.98" cy="248.4" r="5.98"/><circle cx="319.58" cy="234.6" r="5.98"/><circle cx="342.26" cy="224.61" r="5.98"/><circle cx="320.11" cy="256.29" r="5.98"/><circle cx="346.34" cy="206.34" r="5.98"/><circle cx="372.15" cy="201.48" r="5.98"/><circle cx="396.09" cy="185.59" r="5.98"/><circle cx="393.75" cy="210.97" r="5.98"/><circle cx="359.75" cy="221.44" r="5.98"/><circle cx="360.36" cy="186.24" r="5.98"/><circle cx="340.89" cy="168.73" r="5.98"/><circle cx="321.72" cy="164.54" r="5.98"/><circle cx="280.14" cy="156.36" r="5.98"/><circle cx="510.62" cy="397.87" r="5.98"/><circle cx="484.62" cy="397.71" r="5.98"/><circle cx="496.72" cy="372.56" r="5.98"/><circle cx="476.01" cy="366.46" r="5.98"/><circle cx="463.95" cy="385.64" r="5.98"/><circle cx="437.34" cy="382.39" r="5.98"/><circle cx="445.02" cy="362.82" r="5.98"/><circle cx="470.18" cy="341.95" r="5.98"/><circle cx="493.58" cy="342.08" r="5.98"/><circle cx="513.3" cy="348.18" r="5.98"/><circle cx="514.76" cy="369.21" r="5.98"/><circle cx="535.26" cy="369.33" r="5.98"/><circle cx="532.19" cy="392.02" r="5.98"/><circle cx="562.88" cy="378.93" r="5.98"/><circle cx="564.33" cy="346.27" r="5.98"/><circle cx="572.9" cy="330.49" r="5.98"/><circle cx="587.55" cy="348.62" r="5.98"/><circle cx="574.62" cy="364.19" r="5.98"/><circle cx="584.57" cy="377.29" r="5.98"/><circle cx="551.13" cy="346.19" r="5.98"/><circle cx="532.27" cy="338.23" r="5.98"/><circle cx="511.09" cy="320.17" r="5.98"/><circle cx="493.68" cy="324.43" r="5.98"/><circle cx="466.79" cy="321.71" r="5.98"/><circle cx="452.02" cy="336.39" r="5.98"/><circle cx="429.97" cy="347.68" r="5.98"/><circle cx="429.98" cy="326.19" r="5.98"/><circle cx="411.86" cy="344.09" r="5.98"/><circle cx="402.49" cy="354.97" r="5.98"/><circle cx="385.08" cy="353.39" r="5.98"/><circle cx="391.06" cy="336.03" r="5.98"/><circle cx="367.24" cy="339.12" r="5.98"/><circle cx="350.53" cy="329.17" r="5.98"/><circle cx="426.95" cy="366.17" r="5.98"/><circle cx="401.47" cy="372.52" r="5.98"/><circle cx="414.13" cy="387.05" r="5.98"/><circle cx="434.59" cy="403.39" r="5.98"/><circle cx="453.98" cy="406.46" r="5.98"/><circle cx="495.96" cy="412.19" r="5.98"/><circle cx="587.75" cy="316.16" r="5.98"/><circle cx="599.85" cy="291.01" r="5.98"/><circle cx="579.14" cy="284.91" r="5.98"/><circle cx="567.08" cy="304.09" r="5.98"/><circle cx="540.47" cy="300.85" r="5.98"/><circle cx="548.15" cy="281.27" r="5.98"/><circle cx="573.31" cy="260.4" r="5.98"/><circle cx="596.71" cy="260.53" r="5.98"/><circle cx="581.39" cy="227.93" r="5.98"/><circle cx="565.08" cy="219.57" r="5.98"/><circle cx="600.96" cy="199.22" r="5.98"/><circle cx="597.2" cy="178.32" r="5.98"/><circle cx="594.89" cy="214.74" r="5.98"/><circle cx="579.69" cy="192.34" r="5.98"/><circle cx="596.81" cy="242.88" r="5.98"/><circle cx="569.92" cy="240.16" r="5.98"/><circle cx="555.15" cy="254.84" r="5.98"/><circle cx="533.1" cy="266.13" r="5.98"/><circle cx="530.08" cy="284.62" r="5.98"/><circle cx="504.6" cy="290.97" r="5.98"/><circle cx="517.26" cy="305.5" r="5.98"/><circle cx="537.72" cy="321.84" r="5.98"/><circle cx="557.11" cy="324.91" r="5.98"/><circle cx="599.09" cy="330.64" r="5.98"/><circle cx="420.14" cy="309.14" r="5.98"/><circle cx="394.13" cy="308.98" r="5.98"/><circle cx="406.24" cy="283.83" r="5.98"/><circle cx="385.53" cy="277.73" r="5.98"/><circle cx="373.46" cy="296.91" r="5.98"/><circle cx="346.85" cy="293.67" r="5.98"/><circle cx="354.54" cy="274.09" r="5.98"/><circle cx="379.7" cy="253.22" r="5.98"/><circle cx="403.1" cy="253.35" r="5.98"/><circle cx="422.82" cy="259.45" r="5.98"/><circle cx="424.27" cy="280.48" r="5.98"/><circle cx="444.77" cy="280.6" r="5.98"/><circle cx="441.7" cy="303.29" r="5.98"/><circle cx="473.59" cy="300.45" r="5.98"/><circle cx="460.42" cy="294.34" r="5.98"/><circle cx="449.63" cy="315.29" r="5.98"/><circle cx="473.78" cy="268.82" r="5.98"/><circle cx="485.29" cy="283.91" r="5.98"/><circle cx="482.41" cy="241.76" r="5.98"/><circle cx="497.07" cy="259.89" r="5.98"/><circle cx="505.61" cy="274.99" r="5.98"/><circle cx="497.16" cy="305.38" r="5.98"/><circle cx="519.51" cy="254.43" r="5.98"/><circle cx="540.82" cy="246.93" r="5.98"/><circle cx="536.88" cy="233.93" r="5.98"/><circle cx="460.64" cy="257.46" r="5.98"/><circle cx="441.78" cy="249.5" r="5.98"/><circle cx="420.6" cy="231.44" r="5.98"/><circle cx="403.2" cy="235.7" r="5.98"/><circle cx="376.3" cy="232.98" r="5.98"/><circle cx="361.54" cy="247.66" r="5.98"/><circle cx="339.48" cy="258.95" r="5.98"/><circle cx="336.47" cy="277.44" r="5.98"/><circle cx="310.99" cy="283.79" r="5.98"/><circle cx="323.65" cy="298.32" r="5.98"/><circle cx="344.11" cy="314.66" r="5.98"/><circle cx="363.49" cy="317.73" r="5.98"/><circle cx="405.47" cy="323.46" r="5.98"/><circle cx="523.27" cy="227.59" r="5.98"/><circle cx="497.26" cy="227.43" r="5.98"/><circle cx="509.37" cy="202.28" r="5.98"/><circle cx="488.66" cy="196.18" r="5.98"/><circle cx="476.59" cy="215.36" r="5.98"/><circle cx="449.98" cy="212.12" r="5.98"/><circle cx="457.67" cy="192.54" r="5.98"/><circle cx="482.83" cy="171.67" r="5.98"/><circle cx="506.22" cy="171.81" r="5.98"/><circle cx="525.95" cy="177.9" r="5.98"/><circle cx="527.4" cy="198.93" r="5.98"/><circle cx="547.9" cy="199.05" r="5.98"/><circle cx="544.83" cy="221.74" r="5.98"/><circle cx="575.53" cy="208.65" r="5.98"/><circle cx="576.98" cy="175.99" r="5.98"/><circle cx="563.77" cy="175.91" r="5.98"/><circle cx="544.91" cy="167.95" r="5.98"/><circle cx="523.73" cy="149.89" r="5.98"/><circle cx="506.33" cy="154.15" r="5.98"/><circle cx="479.43" cy="151.43" r="5.98"/><circle cx="464.67" cy="166.11" r="5.98"/><circle cx="442.61" cy="177.4" r="5.98"/><circle cx="439.6" cy="195.89" r="5.98"/><circle cx="414.12" cy="202.24" r="5.98"/><circle cx="426.78" cy="216.77" r="5.98"/><circle cx="447.23" cy="233.11" r="5.98"/><circle cx="466.62" cy="236.18" r="5.98"/><circle cx="508.6" cy="241.91" r="5.98"/><circle cx="128.75" cy="422.9" r="5.98"/><circle cx="152.11" cy="424.23" r="5.98"/><circle cx="231.91" cy="416.66" r="5.98"/><circle cx="289.98" cy="424.79" r="5.98"/><circle cx="312.81" cy="412.38" r="5.98"/><circle cx="286.71" cy="411.61" r="5.98"/><circle cx="190.94" cy="422.33" r="5.98"/><circle cx="170.7" cy="403.22" r="5.98"/><circle cx="153.11" cy="406.6" r="5.98"/><circle cx="126.38" cy="402.52" r="5.98"/><circle cx="110.89" cy="416.43" r="5.98"/><circle cx="88.3" cy="426.59" r="5.98"/><circle cx="89.39" cy="405.13" r="5.98"/><circle cx="70.39" cy="422.09" r="5.98"/><circle cx="50.03" cy="412.98" r="5.98"/><circle cx="26.08" cy="414.86" r="5.98"/><circle cx="9.9" cy="404.08" r="5.98"/><circle cx="273.43" cy="404.58" r="5.98"/><circle cx="247.47" cy="403.11" r="5.98"/><circle cx="260.83" cy="378.6" r="5.98"/><circle cx="240.46" cy="371.46" r="5.98"/><circle cx="227.44" cy="390" r="5.98"/><circle cx="201.02" cy="385.42" r="5.98"/><circle cx="209.69" cy="366.25" r="5.98"/><circle cx="235.88" cy="346.68" r="5.98"/><circle cx="259.24" cy="348.01" r="5.98"/><circle cx="278.62" cy="355.09" r="5.98"/><circle cx="279.01" cy="376.17" r="5.98"/><circle cx="299.48" cy="377.33" r="5.98"/><circle cx="295.27" cy="399.83" r="5.98"/><circle cx="326.59" cy="388.31" r="5.98"/><circle cx="351.19" cy="353.22" r="5.98"/><circle cx="342.91" cy="376" r="5.98"/><circle cx="329.69" cy="355.77" r="5.98"/><circle cx="316.5" cy="355.02" r="5.98"/><circle cx="298.07" cy="346.11" r="5.98"/><circle cx="305.19" cy="330.36" r="5.98"/><circle cx="290.3" cy="317.2" r="5.98"/><circle cx="311.41" cy="310.12" r="5.98"/><circle cx="268.92" cy="314.9" r="5.98"/><circle cx="245.59" cy="314.67" r="5.98"/><circle cx="229.73" cy="305.49" r="5.98"/><circle cx="283.23" cy="301.74" r="5.98"/><circle cx="292.06" cy="286.05" r="5.98"/><circle cx="266.59" cy="286.99" r="5.98"/><circle cx="263.89" cy="265.92" r="5.98"/><circle cx="259.74" cy="302.18" r="5.98"/><circle cx="245.7" cy="279.03" r="5.98"/><circle cx="324.93" cy="334.04" r="5.98"/><circle cx="277.83" cy="327" r="5.98"/><circle cx="260.24" cy="330.38" r="5.98"/><circle cx="233.51" cy="326.3" r="5.98"/><circle cx="218.02" cy="340.21" r="5.98"/><circle cx="195.42" cy="350.37" r="5.98"/><circle cx="191.48" cy="368.68" r="5.98"/><circle cx="165.7" cy="373.74" r="5.98"/><circle cx="177.61" cy="388.89" r="5.98"/><circle cx="197.22" cy="406.25" r="5.98"/><circle cx="216.42" cy="410.29" r="5.98"/><circle cx="258.06" cy="418.14" r="5.98"/><circle cx="80.43" cy="387.6" r="5.98"/><circle cx="54.47" cy="386.13" r="5.98"/><circle cx="67.83" cy="361.62" r="5.98"/><circle cx="47.46" cy="354.48" r="5.98"/><circle cx="34.44" cy="373.02" r="5.98"/><circle cx="8.02" cy="368.44" r="5.98"/><circle cx="16.69" cy="349.27" r="5.98"/><circle cx="42.88" cy="329.7" r="5.98"/><circle cx="66.24" cy="331.03" r="5.98"/><circle cx="85.62" cy="338.11" r="5.98"/><circle cx="86.01" cy="359.19" r="5.98"/><circle cx="106.48" cy="360.35" r="5.98"/><circle cx="102.27" cy="382.85" r="5.98"/><circle cx="134.26" cy="381.63" r="5.98"/><circle cx="121.41" cy="374.86" r="5.98"/><circle cx="109.57" cy="395.24" r="5.98"/><circle cx="136.05" cy="350.05" r="5.98"/><circle cx="146.78" cy="365.71" r="5.98"/><circle cx="146.04" cy="323.46" r="5.98"/><circle cx="159.76" cy="342.31" r="5.98"/><circle cx="167.53" cy="357.82" r="5.98"/><circle cx="157.55" cy="387.75" r="5.98"/><circle cx="182.45" cy="338" r="5.98"/><circle cx="204.11" cy="331.59" r="5.98"/><circle cx="200.84" cy="318.41" r="5.98"/><circle cx="123.5" cy="338.04" r="5.98"/><circle cx="105.07" cy="329.13" r="5.98"/><circle cx="84.83" cy="310.02" r="5.98"/><circle cx="67.24" cy="313.4" r="5.98"/><circle cx="40.51" cy="309.32" r="5.98"/><circle cx="25.02" cy="323.23" r="5.98"/><circle cx="2.42" cy="333.4" r="5.98"/><circle cx="-1.52" cy="351.7" r="5.98"/><circle cx="4.22" cy="389.27" r="5.98"/><circle cx="23.42" cy="393.31" r="5.98"/><circle cx="65.06" cy="401.16" r="5.98"/><circle cx="340.06" cy="420.27" r="5.98"/><circle cx="362.92" cy="424.83" r="5.98"/><circle cx="376.68" cy="406.28" r="5.98"/><circle cx="398.36" cy="406.09" r="5.98"/><circle cx="385.23" cy="426.54" r="5.98"/><circle cx="420.87" cy="418.08" r="5.98"/><circle cx="472.63" cy="419.07" r="5.98"/><circle cx="441.13" cy="423.19" r="5.98"/><circle cx="388.26" cy="386.88" r="5.98"/><circle cx="376.92" cy="379.41" r="5.98"/><circle cx="362.4" cy="383.24" r="5.98"/><circle cx="342.31" cy="399.76" r="5.98"/><circle cx="324.35" cy="426.09" r="5.98"/><circle cx="360.29" cy="403.64" r="5.98"/><circle cx="187.56" cy="311.38" r="5.98"/><circle cx="161.6" cy="309.91" r="5.98"/><circle cx="174.96" cy="285.4" r="5.98"/><circle cx="154.59" cy="278.26" r="5.98"/><circle cx="141.56" cy="296.8" r="5.98"/><circle cx="115.15" cy="292.22" r="5.98"/><circle cx="123.82" cy="273.05" r="5.98"/><circle cx="150.01" cy="253.48" r="5.98"/><circle cx="173.36" cy="254.81" r="5.98"/><circle cx="192.75" cy="261.89" r="5.98"/><circle cx="193.14" cy="282.97" r="5.98"/><circle cx="213.61" cy="284.13" r="5.98"/><circle cx="209.39" cy="306.63" r="5.98"/><circle cx="240.71" cy="295.11" r="5.98"/><circle cx="243.81" cy="262.57" r="5.98"/><circle cx="230.63" cy="261.82" r="5.98"/><circle cx="212.2" cy="252.91" r="5.98"/><circle cx="191.96" cy="233.8" r="5.98"/><circle cx="174.36" cy="237.18" r="5.98"/><circle cx="147.64" cy="233.1" r="5.98"/><circle cx="132.15" cy="247.01" r="5.98"/><circle cx="109.55" cy="257.18" r="5.98"/><circle cx="131.45" cy="225.33" r="5.98"/><circle cx="105.6" cy="275.48" r="5.98"/><circle cx="79.83" cy="280.54" r="5.98"/><circle cx="56.01" cy="296.62" r="5.98"/><circle cx="58.16" cy="271.21" r="5.98"/><circle cx="92.08" cy="260.48" r="5.98"/><circle cx="91.74" cy="295.69" r="5.98"/><circle cx="111.34" cy="313.05" r="5.98"/><circle cx="130.55" cy="317.09" r="5.98"/><circle cx="172.19" cy="324.95" r="5.98"/><circle cx="13.26" cy="100.13" r="5.98"/><circle cx="5.72" cy="119.77" r="5.98"/><circle cx="-1.08" cy="146.25" r="5.98"/><circle cx="20.89" cy="134.79" r="5.98"/><circle cx="21.05" cy="156.28" r="5.98"/><circle cx="39.03" cy="138.24" r="5.98"/><circle cx="48.31" cy="127.29" r="5.98"/><circle cx="65.73" cy="128.73" r="5.98"/><circle cx="59.89" cy="146.14" r="5.98"/><circle cx="83.69" cy="142.87" r="5.98"/><circle cx="100.47" cy="152.69" r="5.98"/><circle cx="23.76" cy="116.28" r="5.98"/><circle cx="49.2" cy="109.73" r="5.98"/><circle cx="36.42" cy="95.3" r="5.98"/><circle cx="15.84" cy="79.12" r="5.98"/><circle cx="-3.57" cy="76.2" r="5.98"/><circle cx="31.02" cy="173.26" r="5.98"/><circle cx="57.02" cy="173.21" r="5.98"/><circle cx="45.11" cy="198.46" r="5.98"/><circle cx="65.87" cy="204.4" r="5.98"/><circle cx="77.79" cy="185.13" r="5.98"/><circle cx="104.42" cy="188.16" r="5.98"/><circle cx="96.89" cy="207.8" r="5.98"/><circle cx="71.89" cy="228.86" r="5.98"/><circle cx="48.49" cy="228.91" r="5.98"/><circle cx="28.72" cy="222.96" r="5.98"/><circle cx="27.11" cy="201.94" r="5.98"/><circle cx="6.6" cy="201.98" r="5.98"/><circle cx="9.5" cy="179.27" r="5.98"/><circle cx="1.48" cy="167.33" r="5.98"/><circle cx="9.83" cy="233.06" r="5.98"/><circle cx="31.15" cy="250.96" r="5.98"/><circle cx="48.52" cy="246.56" r="5.98"/><circle cx="75.44" cy="249.07" r="5.98"/><circle cx="90.09" cy="234.28" r="5.98"/><circle cx="112.06" cy="222.82" r="5.98"/><circle cx="114.93" cy="204.31" r="5.98"/><circle cx="140.36" cy="197.76" r="5.98"/><circle cx="127.59" cy="183.33" r="5.98"/><circle cx="107.01" cy="167.14" r="5.98"/><circle cx="87.6" cy="164.23" r="5.98"/><circle cx="45.57" cy="158.82" r="5.98"/><circle cx="150.98" cy="-2" r="5.98"/><circle cx="133.48" cy="8.95" r="5.98"/><circle cx="116.61" cy="-3.69" r="5.98"/><circle cx="103.12" cy="11.76" r="5.98"/><circle cx="87.95" cy="-5.39" r="5.98"/><circle cx="77.81" cy="26.41" r="5.98"/><circle cx="101.59" cy="48.84" r="5.98"/><circle cx="107.94" cy="65.63" r="5.98"/><circle cx="84.64" cy="64.88" r="5.98"/><circle cx="81.3" cy="44.92" r="5.98"/><circle cx="64.88" cy="43.89" r="5.98"/><circle cx="74.11" cy="85.44" r="5.98"/><circle cx="78.28" cy="111.98" r="5.98"/><circle cx="110.28" cy="38.89" r="5.98"/><circle cx="128.63" cy="29.81" r="5.98"/><circle cx="156.14" cy="25.57" r="5.98"/><circle cx="164.28" cy="9.62" r="5.98"/><circle cx="219.17" cy="1.65" r="5.98"/><circle cx="110.9" cy="107.16" r="5.98"/><circle cx="66.44" cy="102.59" r="5.98"/><circle cx="97.45" cy="130.77" r="5.98"/><circle cx="56.54" cy="87.73" r="5.98"/><circle cx="61.83" cy="65.6" r="5.98"/><circle cx="37.44" cy="73.57" r="5.98"/><circle cx="91.98" cy="105.82" r="5.98"/><circle cx="109.09" cy="86.23" r="5.98"/><circle cx="163.21" cy="39.83" r="5.98"/><circle cx="137.47" cy="44.64" r="5.98"/><circle cx="122.48" cy="57.32" r="5.98"/><circle cx="90.72" cy="85.36" r="5.98"/><circle cx="127.31" cy="75.2" r="5.98"/><circle cx="195.56" cy="10.07" r="5.98"/><circle cx="176.43" cy="24.69" r="5.98"/><circle cx="142.51" cy="64.19" r="5.98"/><circle cx="1.92" cy="270.5" r="5.98"/><circle cx="-5.61" cy="290.14" r="5.98"/><circle cx="9.56" cy="305.16" r="5.98"/><circle cx="12.43" cy="286.65" r="5.98"/><circle cx="37.87" cy="280.1" r="5.98"/><circle cx="25.09" cy="265.67" r="5.98"/><circle cx="4.51" cy="249.49" r="5.98"/></g></svg>