<svg viewBox="0 0 597 424" xmlns="http://www.w3.org/2000/svg" xmlns:xlink="http://www.w3.org/1999/xlink"><clipPath id="a"><path d="m528.73 304.25c2.42 49.11-32 92.56-80.6 100.18a261.78 261.78 0 0 1 -74.57.87s-81.56-13.17-111.25-66.43-39.22-66.18-65-82.15-80.43-31.62-103.24-28.88-69.53-6.27-71.07-49.59-12.23-70.72 21.26-114 82.6-38.25 115.17-32.12 87.88 48.54 130.26 26.41 79.31-54.9 134.48-47.44 138 33 153 56.59 23 96.08-22.55 134.49c-24.01 20.26-27.73 64.64-25.89 102.07z"/></clipPath><g clip-path="url(#a)" fill="#c8492f"><circle cx="323.39" cy="417.71" r="5.98"/><circle cx="297.43" cy="416.14" r="5.98"/><circle cx="310.89" cy="391.68" r="5.98"/><circle cx="290.54" cy="384.46" r="5.98"/><circle cx="277.45" cy="402.96" r="5.98"/><circle cx="251.05" cy="398.27" r="5.98"/><circle cx="259.79" cy="379.14" r="5.98"/><circle cx="286.05" cy="359.67" r="5.98"/><circle cx="309.41" cy="361.08" r="5.98"/><circle cx="328.77" cy="368.24" r="5.98"/><circle cx="329.08" cy="389.32" r="5.98"/><circle cx="349.54" cy="390.56" r="5.98"/><circle cx="345.24" cy="413.05" r="5.98"/><circle cx="376.6" cy="401.64" r="5.98"/><circle cx="379.83" cy="369.11" r="5.98"/><circle cx="389.24" cy="353.82" r="5.98"/><circle cx="402.89" cy="372.73" r="5.98"/><circle cx="389.13" cy="387.57" r="5.98"/><circle cx="398.35" cy="401.19" r="5.98"/><circle cx="425.6" cy="368.5" r="5.98"/><circle cx="447.28" cy="362.17" r="5.98"/><circle cx="444.05" cy="348.98" r="5.98"/><circle cx="366.65" cy="368.31" r="5.98"/><circle cx="348.25" cy="359.34" r="5.98"/><circle cx="328.08" cy="340.15" r="5.98"/><circle cx="310.47" cy="343.46" r="5.98"/><circle cx="283.76" cy="339.28" r="5.98"/><circle cx="268.22" cy="353.13" r="5.98"/><circle cx="245.59" cy="363.21" r="5.98"/><circle cx="246.77" cy="341.74" r="5.98"/><circle cx="227.7" cy="358.64" r="5.98"/><circle cx="217.75" cy="368.99" r="5.98"/><circle cx="200.46" cy="366.47" r="5.98"/><circle cx="207.37" cy="349.45" r="5.98"/><circle cx="183.41" cy="351.24" r="5.98"/><circle cx="167.28" cy="340.39" r="5.98"/><circle cx="241.57" cy="381.5" r="5.98"/><circle cx="215.78" cy="386.46" r="5.98"/><circle cx="227.63" cy="401.65" r="5.98"/><circle cx="247.17" cy="419.09" r="5.98"/><circle cx="266.36" cy="423.2" r="5.98"/><circle cx="430.81" cy="341.9" r="5.98"/><circle cx="404.85" cy="340.33" r="5.98"/><circle cx="418.3" cy="315.87" r="5.98"/><circle cx="397.96" cy="308.65" r="5.98"/><circle cx="384.87" cy="327.14" r="5.98"/><circle cx="358.47" cy="322.46" r="5.98"/><circle cx="367.21" cy="303.33" r="5.98"/><circle cx="393.47" cy="283.86" r="5.98"/><circle cx="416.83" cy="285.27" r="5.98"/><circle cx="436.18" cy="292.43" r="5.98"/><circle cx="436.49" cy="313.51" r="5.98"/><circle cx="456.96" cy="314.75" r="5.98"/><circle cx="452.66" cy="337.23" r="5.98"/><circle cx="484.02" cy="325.83" r="5.98"/><circle cx="487.24" cy="293.3" r="5.98"/><circle cx="474.06" cy="292.5" r="5.98"/><circle cx="455.66" cy="283.53" r="5.98"/><circle cx="462.85" cy="267.8" r="5.98"/><circle cx="448" cy="254.59" r="5.98"/><circle cx="469.14" cy="247.58" r="5.98"/><circle cx="426.64" cy="252.2" r="5.98"/><circle cx="403.31" cy="251.88" r="5.98"/><circle cx="387.48" cy="242.64" r="5.98"/><circle cx="440.99" cy="239.1" r="5.98"/><circle cx="449.89" cy="223.44" r="5.98"/><circle cx="457.67" cy="203.64" r="5.98"/><circle cx="424.41" cy="224.28" r="5.98"/><circle cx="421.79" cy="203.21" r="5.98"/><circle cx="417.51" cy="239.44" r="5.98"/><circle cx="403.55" cy="216.25" r="5.98"/><circle cx="482.57" cy="271.56" r="5.98"/><circle cx="435.5" cy="264.34" r="5.98"/><circle cx="417.89" cy="267.65" r="5.98"/><circle cx="391.18" cy="263.47" r="5.98"/><circle cx="375.64" cy="277.32" r="5.98"/><circle cx="353" cy="287.4" r="5.98"/><circle cx="348.99" cy="305.69" r="5.98"/><circle cx="323.2" cy="310.65" r="5.98"/><circle cx="335.05" cy="325.84" r="5.98"/><circle cx="354.58" cy="343.28" r="5.98"/><circle cx="373.78" cy="347.39" r="5.98"/><circle cx="415.38" cy="355.4" r="5.98"/><circle cx="237.87" cy="324.19" r="5.98"/><circle cx="211.91" cy="322.62" r="5.98"/><circle cx="225.37" cy="298.16" r="5.98"/><circle cx="205.02" cy="290.94" r="5.98"/><circle cx="191.93" cy="309.43" r="5.98"/><circle cx="165.54" cy="304.75" r="5.98"/><circle cx="174.28" cy="285.62" r="5.98"/><circle cx="200.54" cy="266.14" r="5.98"/><circle cx="223.89" cy="267.56" r="5.98"/><circle cx="243.25" cy="274.72" r="5.98"/><circle cx="243.56" cy="295.8" r="5.98"/><circle cx="264.02" cy="297.03" r="5.98"/><circle cx="259.72" cy="319.52" r="5.98"/><circle cx="291.72" cy="318.42" r="5.98"/><circle cx="278.9" cy="311.6" r="5.98"/><circle cx="266.98" cy="331.93" r="5.98"/><circle cx="293.63" cy="286.85" r="5.98"/><circle cx="304.3" cy="302.55" r="5.98"/><circle cx="303.72" cy="260.3" r="5.98"/><circle cx="317.37" cy="279.2" r="5.98"/><circle cx="325.08" cy="294.74" r="5.98"/><circle cx="314.98" cy="324.63" r="5.98"/><circle cx="340.08" cy="274.97" r="5.98"/><circle cx="361.76" cy="268.64" r="5.98"/><circle cx="358.54" cy="255.45" r="5.98"/><circle cx="281.13" cy="274.79" r="5.98"/><circle cx="262.73" cy="265.81" r="5.98"/><circle cx="242.56" cy="246.62" r="5.98"/><circle cx="224.96" cy="249.93" r="5.98"/><circle cx="198.25" cy="245.75" r="5.98"/><circle cx="182.71" cy="259.61" r="5.98"/><circle cx="160.07" cy="269.68" r="5.98"/><circle cx="156.05" cy="287.97" r="5.98"/><circle cx="130.26" cy="292.93" r="5.98"/><circle cx="142.11" cy="308.13" r="5.98"/><circle cx="161.65" cy="325.56" r="5.98"/><circle cx="180.84" cy="329.68" r="5.98"/><circle cx="222.45" cy="337.69" r="5.98"/><circle cx="345.29" cy="248.37" r="5.98"/><circle cx="319.33" cy="246.8" r="5.98"/><circle cx="332.79" cy="222.34" r="5.98"/><circle cx="312.44" cy="215.13" r="5.98"/><circle cx="299.35" cy="233.62" r="5.98"/><circle cx="272.95" cy="228.93" r="5.98"/><circle cx="281.69" cy="209.81" r="5.98"/><circle cx="307.95" cy="190.33" r="5.98"/><circle cx="331.31" cy="191.75" r="5.98"/><circle cx="350.67" cy="198.9" r="5.98"/><circle cx="350.98" cy="219.98" r="5.98"/><circle cx="371.44" cy="221.22" r="5.98"/><circle cx="367.14" cy="243.71" r="5.98"/><circle cx="398.5" cy="232.31" r="5.98"/><circle cx="401.73" cy="199.77" r="5.98"/><circle cx="388.54" cy="198.98" r="5.98"/><circle cx="370.15" cy="190" r="5.98"/><circle cx="349.98" cy="170.81" r="5.98"/><circle cx="332.37" cy="174.12" r="5.98"/><circle cx="305.66" cy="169.94" r="5.98"/><circle cx="290.12" cy="183.8" r="5.98"/><circle cx="267.49" cy="193.87" r="5.98"/><circle cx="289.51" cy="162.11" r="5.98"/><circle cx="263.47" cy="212.16" r="5.98"/><circle cx="237.68" cy="217.12" r="5.98"/><circle cx="213.8" cy="233.11" r="5.98"/><circle cx="216.05" cy="207.71" r="5.98"/><circle cx="250" cy="197.11" r="5.98"/><circle cx="249.53" cy="232.32" r="5.98"/><circle cx="269.07" cy="249.75" r="5.98"/><circle cx="288.26" cy="253.87" r="5.98"/><circle cx="329.86" cy="261.88" r="5.98"/><circle cx="98.44" cy="21.28" r="5.98"/><circle cx="124.45" cy="21.33" r="5.98"/><circle cx="112.44" cy="46.53" r="5.98"/><circle cx="133.17" cy="52.55" r="5.98"/><circle cx="145.17" cy="33.33" r="5.98"/><circle cx="171.79" cy="36.46" r="5.98"/><circle cx="164.18" cy="56.07" r="5.98"/><circle cx="139.1" cy="77.04" r="5.98"/><circle cx="115.7" cy="76.99" r="5.98"/><circle cx="95.96" cy="70.98" r="5.98"/><circle cx="94.42" cy="49.95" r="5.98"/><circle cx="73.92" cy="49.91" r="5.98"/><circle cx="76.9" cy="27.21" r="5.98"/><circle cx="46.26" cy="40.42" r="5.98"/><circle cx="44.94" cy="73.09" r="5.98"/><circle cx="36.43" cy="88.9" r="5.98"/><circle cx="21.7" cy="70.83" r="5.98"/><circle cx="34.58" cy="55.21" r="5.98"/><circle cx="24.57" cy="42.14" r="5.98"/><circle cx="-.72" cy="76.37" r="5.98"/><circle cx="58.14" cy="73.12" r="5.98"/><circle cx="77.03" cy="81" r="5.98"/><circle cx="98.28" cy="98.98" r="5.98"/><circle cx="115.67" cy="94.65" r="5.98"/><circle cx="142.58" cy="97.26" r="5.98"/><circle cx="157.28" cy="82.53" r="5.98"/><circle cx="179.29" cy="71.15" r="5.98"/><circle cx="179.37" cy="92.64" r="5.98"/><circle cx="197.42" cy="74.67" r="5.98"/><circle cx="206.74" cy="63.75" r="5.98"/><circle cx="224.16" cy="65.26" r="5.98"/><circle cx="218.25" cy="82.65" r="5.98"/><circle cx="242.06" cy="79.47" r="5.98"/><circle cx="258.8" cy="89.35" r="5.98"/><circle cx="182.23" cy="52.65" r="5.98"/><circle cx="207.69" cy="46.2" r="5.98"/><circle cx="194.97" cy="31.72" r="5.98"/><circle cx="174.45" cy="15.46" r="5.98"/><circle cx="155.05" cy="12.47" r="5.98"/><circle cx="113.05" cy="6.9" r="5.98"/><circle cx="-4.37" cy="103.23" r="5.98"/><circle cx="21.64" cy="103.28" r="5.98"/><circle cx="9.63" cy="128.49" r="5.98"/><circle cx="30.36" cy="134.5" r="5.98"/><circle cx="42.36" cy="115.28" r="5.98"/><circle cx="68.98" cy="118.42" r="5.98"/><circle cx="61.37" cy="138.02" r="5.98"/><circle cx="36.29" cy="158.99" r="5.98"/><circle cx="12.89" cy="158.95" r="5.98"/><circle cx="5.03" cy="192.53" r="5.98"/><circle cx="28.34" cy="191.49" r="5.98"/><circle cx="44.68" cy="199.79" r="5.98"/><circle cx="8.88" cy="220.27" r="5.98"/><circle cx="12.73" cy="241.16" r="5.98"/><circle cx="14.89" cy="204.73" r="5.98"/><circle cx="30.18" cy="227.08" r="5.98"/><circle cx="-4.53" cy="180.93" r="5.98"/><circle cx="12.86" cy="176.6" r="5.98"/><circle cx="39.77" cy="179.22" r="5.98"/><circle cx="54.47" cy="164.48" r="5.98"/><circle cx="76.48" cy="153.1" r="5.98"/><circle cx="79.43" cy="134.6" r="5.98"/><circle cx="104.88" cy="128.15" r="5.98"/><circle cx="92.16" cy="113.67" r="5.98"/><circle cx="71.64" cy="97.41" r="5.98"/><circle cx="52.24" cy="94.42" r="5.98"/><circle cx="10.24" cy="88.85" r="5.98"/><circle cx="189.27" cy="109.65" r="5.98"/><circle cx="215.28" cy="109.71" r="5.98"/><circle cx="203.27" cy="134.91" r="5.98"/><circle cx="224" cy="140.93" r="5.98"/><circle cx="236" cy="121.7" r="5.98"/><circle cx="262.62" cy="124.84" r="5.98"/><circle cx="255.01" cy="144.45" r="5.98"/><circle cx="229.93" cy="165.42" r="5.98"/><circle cx="206.53" cy="165.37" r="5.98"/><circle cx="186.79" cy="159.35" r="5.98"/><circle cx="185.25" cy="138.33" r="5.98"/><circle cx="164.75" cy="138.29" r="5.98"/><circle cx="167.73" cy="115.59" r="5.98"/><circle cx="135.85" cy="118.55" r="5.98"/><circle cx="149.05" cy="124.61" r="5.98"/><circle cx="159.76" cy="103.62" r="5.98"/><circle cx="135.79" cy="150.18" r="5.98"/><circle cx="124.22" cy="135.13" r="5.98"/><circle cx="127.26" cy="177.28" r="5.98"/><circle cx="112.53" cy="159.2" r="5.98"/><circle cx="103.93" cy="144.14" r="5.98"/><circle cx="112.26" cy="113.71" r="5.98"/><circle cx="90.11" cy="164.75" r="5.98"/><circle cx="68.83" cy="172.33" r="5.98"/><circle cx="72.82" cy="185.31" r="5.98"/><circle cx="148.97" cy="161.49" r="5.98"/><circle cx="167.86" cy="169.38" r="5.98"/><circle cx="189.11" cy="187.36" r="5.98"/><circle cx="206.5" cy="183.03" r="5.98"/><circle cx="233.41" cy="185.64" r="5.98"/><circle cx="248.11" cy="170.9" r="5.98"/><circle cx="270.12" cy="159.52" r="5.98"/><circle cx="273.06" cy="141.03" r="5.98"/><circle cx="298.52" cy="134.57" r="5.98"/><circle cx="285.8" cy="120.09" r="5.98"/><circle cx="265.28" cy="103.83" r="5.98"/><circle cx="245.88" cy="100.84" r="5.98"/><circle cx="203.88" cy="95.27" r="5.98"/><circle cx="86.46" cy="191.6" r="5.98"/><circle cx="112.47" cy="191.66" r="5.98"/><circle cx="100.46" cy="216.86" r="5.98"/><circle cx="121.19" cy="222.88" r="5.98"/><circle cx="133.19" cy="203.65" r="5.98"/><circle cx="159.81" cy="206.79" r="5.98"/><circle cx="152.2" cy="226.4" r="5.98"/><circle cx="127.12" cy="247.37" r="5.98"/><circle cx="103.72" cy="247.32" r="5.98"/><circle cx="83.98" cy="241.3" r="5.98"/><circle cx="82.44" cy="220.28" r="5.98"/><circle cx="61.94" cy="220.24" r="5.98"/><circle cx="64.92" cy="197.54" r="5.98"/><circle cx="34.28" cy="210.75" r="5.98"/><circle cx="32.96" cy="243.41" r="5.98"/><circle cx="46.16" cy="243.44" r="5.98"/><circle cx="65.05" cy="251.33" r="5.98"/><circle cx="86.3" cy="269.31" r="5.98"/><circle cx="103.69" cy="264.98" r="5.98"/><circle cx="130.6" cy="267.59" r="5.98"/><circle cx="145.3" cy="252.85" r="5.98"/><circle cx="167.31" cy="241.47" r="5.98"/><circle cx="170.25" cy="222.98" r="5.98"/><circle cx="195.71" cy="216.53" r="5.98"/><circle cx="182.99" cy="202.05" r="5.98"/><circle cx="162.47" cy="185.78" r="5.98"/><circle cx="143.07" cy="182.79" r="5.98"/><circle cx="101.07" cy="177.22" r="5.98"/><circle cx="480.21" cy="-5.25" r="5.98"/><circle cx="377.08" cy="1.39" r="5.98"/><circle cx="296.2" cy="6" r="5.98"/><circle cx="322.3" cy="6.66" r="5.98"/><circle cx="418.03" cy="-4.44" r="5.98"/><circle cx="438.34" cy="14.6" r="5.98"/><circle cx="455.92" cy="11.15" r="5.98"/><circle cx="482.66" cy="15.13" r="5.98"/><circle cx="498.1" cy="1.15" r="5.98"/><circle cx="519.64" cy="12.37" r="5.98"/><circle cx="538.58" cy="-4.67" r="5.98"/><circle cx="558.98" cy="4.36" r="5.98"/><circle cx="582.92" cy="2.39" r="5.98"/><circle cx="599.14" cy="13.11" r="5.98"/><circle cx="335.6" cy="13.64" r="5.98"/><circle cx="361.57" cy="15.01" r="5.98"/><circle cx="348.31" cy="39.57" r="5.98"/><circle cx="368.71" cy="46.63" r="5.98"/><circle cx="381.66" cy="28.04" r="5.98"/><circle cx="408.09" cy="32.52" r="5.98"/><circle cx="399.5" cy="51.72" r="5.98"/><circle cx="373.39" cy="71.39" r="5.98"/><circle cx="350.02" cy="70.16" r="5.98"/><circle cx="330.61" cy="63.15" r="5.98"/><circle cx="330.14" cy="42.07" r="5.98"/><circle cx="309.66" cy="40.99" r="5.98"/><circle cx="313.79" cy="18.47" r="5.98"/><circle cx="282.52" cy="30.11" r="5.98"/><circle cx="258.05" cy="65.3" r="5.98"/><circle cx="266.24" cy="42.49" r="5.98"/><circle cx="279.54" cy="62.67" r="5.98"/><circle cx="292.73" cy="63.37" r="5.98"/><circle cx="311.2" cy="72.2" r="5.98"/><circle cx="304.14" cy="87.98" r="5.98"/><circle cx="319.08" cy="101.08" r="5.98"/><circle cx="298" cy="108.25" r="5.98"/><circle cx="340.46" cy="103.3" r="5.98"/><circle cx="363.8" cy="103.44" r="5.98"/><circle cx="379.7" cy="112.56" r="5.98"/><circle cx="326.21" cy="116.51" r="5.98"/><circle cx="317.44" cy="132.24" r="5.98"/><circle cx="342.91" cy="131.2" r="5.98"/><circle cx="345.69" cy="152.26" r="5.98"/><circle cx="349.69" cy="115.99" r="5.98"/><circle cx="363.83" cy="139.08" r="5.98"/><circle cx="284.38" cy="84.37" r="5.98"/><circle cx="331.51" cy="91.23" r="5.98"/><circle cx="349.09" cy="87.79" r="5.98"/><circle cx="375.83" cy="91.76" r="5.98"/><circle cx="391.27" cy="77.79" r="5.98"/><circle cx="413.83" cy="67.54" r="5.98"/><circle cx="417.7" cy="49.22" r="5.98"/><circle cx="443.45" cy="44.06" r="5.98"/><circle cx="431.48" cy="28.96" r="5.98"/><circle cx="411.81" cy="11.67" r="5.98"/><circle cx="392.59" cy="7.7" r="5.98"/><circle cx="350.92" cy=".01" r="5.98"/><circle cx="528.67" cy="29.86" r="5.98"/><circle cx="554.64" cy="31.23" r="5.98"/><circle cx="541.37" cy="55.8" r="5.98"/><circle cx="561.77" cy="62.86" r="5.98"/><circle cx="574.72" cy="44.26" r="5.98"/><circle cx="601.15" cy="48.75" r="5.98"/><circle cx="592.56" cy="67.94" r="5.98"/><circle cx="566.45" cy="87.62" r="5.98"/><circle cx="543.09" cy="86.38" r="5.98"/><circle cx="523.67" cy="79.37" r="5.98"/><circle cx="523.2" cy="58.3" r="5.98"/><circle cx="502.73" cy="57.22" r="5.98"/><circle cx="506.86" cy="34.7" r="5.98"/><circle cx="474.87" cy="36.04" r="5.98"/><circle cx="487.74" cy="42.76" r="5.98"/><circle cx="499.5" cy="22.34" r="5.98"/><circle cx="473.2" cy="67.63" r="5.98"/><circle cx="462.41" cy="52.02" r="5.98"/><circle cx="463.31" cy="94.26" r="5.98"/><circle cx="449.52" cy="75.46" r="5.98"/><circle cx="441.69" cy="59.98" r="5.98"/><circle cx="451.56" cy="30.02" r="5.98"/><circle cx="426.85" cy="79.86" r="5.98"/><circle cx="405.21" cy="86.36" r="5.98"/><circle cx="408.54" cy="99.53" r="5.98"/><circle cx="485.8" cy="79.59" r="5.98"/><circle cx="504.26" cy="88.43" r="5.98"/><circle cx="524.58" cy="107.46" r="5.98"/><circle cx="542.16" cy="104.01" r="5.98"/><circle cx="568.9" cy="107.99" r="5.98"/><circle cx="584.33" cy="94.01" r="5.98"/><circle cx="585.66" cy="23.93" r="5.98"/><circle cx="543.99" cy="16.24" r="5.98"/><circle cx="268.92" cy="-1.79" r="5.98"/><circle cx="232.35" cy="12.34" r="5.98"/><circle cx="210.67" cy="12.62" r="5.98"/><circle cx="188.12" cy=".72" r="5.98"/><circle cx="136.36" cy="-.08" r="5.98"/><circle cx="167.83" cy="-4.32" r="5.98"/><circle cx="220.85" cy="31.79" r="5.98"/><circle cx="232.22" cy="39.21" r="5.98"/><circle cx="246.73" cy="35.32" r="5.98"/><circle cx="266.75" cy="18.73" r="5.98"/><circle cx="248.75" cy="14.92" r="5.98"/><circle cx="421.84" cy="106.5" r="5.98"/><circle cx="447.81" cy="107.87" r="5.98"/><circle cx="434.54" cy="132.43" r="5.98"/><circle cx="454.94" cy="139.5" r="5.98"/><circle cx="467.89" cy="120.9" r="5.98"/><circle cx="494.32" cy="125.38" r="5.98"/><circle cx="485.73" cy="144.58" r="5.98"/><circle cx="459.62" cy="164.25" r="5.98"/><circle cx="436.26" cy="163.02" r="5.98"/><circle cx="416.84" cy="156.01" r="5.98"/><circle cx="416.37" cy="134.93" r="5.98"/><circle cx="395.9" cy="133.85" r="5.98"/><circle cx="400.03" cy="111.34" r="5.98"/><circle cx="368.75" cy="122.98" r="5.98"/><circle cx="365.78" cy="155.53" r="5.98"/><circle cx="378.97" cy="156.23" r="5.98"/><circle cx="397.43" cy="165.06" r="5.98"/><circle cx="417.75" cy="184.1" r="5.98"/><circle cx="435.33" cy="180.65" r="5.98"/><circle cx="462.07" cy="184.63" r="5.98"/><circle cx="477.5" cy="170.65" r="5.98"/><circle cx="500.06" cy="160.4" r="5.98"/><circle cx="478.28" cy="192.33" r="5.98"/><circle cx="503.94" cy="142.08" r="5.98"/><circle cx="529.69" cy="136.93" r="5.98"/><circle cx="553.44" cy="120.75" r="5.98"/><circle cx="551.39" cy="146.17" r="5.98"/><circle cx="517.52" cy="157.03" r="5.98"/><circle cx="517.72" cy="121.82" r="5.98"/><circle cx="498.05" cy="104.54" r="5.98"/><circle cx="478.83" cy="100.57" r="5.98"/><circle cx="437.16" cy="92.88" r="5.98"/><circle cx="596.97" cy="317.07" r="5.98"/><circle cx="589.2" cy="282.44" r="5.98"/><circle cx="588.96" cy="260.95" r="5.98"/><circle cx="571.05" cy="279.06" r="5.98"/><circle cx="561.81" cy="290.05" r="5.98"/><circle cx="544.38" cy="288.67" r="5.98"/><circle cx="550.15" cy="271.24" r="5.98"/><circle cx="526.37" cy="274.61" r="5.98"/><circle cx="509.55" cy="264.85" r="5.98"/><circle cx="586.4" cy="300.96" r="5.98"/><circle cx="560.99" cy="307.61" r="5.98"/><circle cx="573.82" cy="321.99" r="5.98"/><circle cx="594.47" cy="338.1" r="5.98"/><circle cx="578.92" cy="244.01" r="5.98"/><circle cx="552.92" cy="244.16" r="5.98"/><circle cx="564.73" cy="218.87" r="5.98"/><circle cx="543.95" cy="213.01" r="5.98"/><circle cx="532.11" cy="232.33" r="5.98"/><circle cx="505.46" cy="229.4" r="5.98"/><circle cx="512.92" cy="209.73" r="5.98"/><circle cx="537.84" cy="188.57" r="5.98"/><circle cx="561.23" cy="188.43" r="5.98"/><circle cx="581.02" cy="194.3" r="5.98"/><circle cx="582.72" cy="215.31" r="5.98"/><circle cx="600.42" cy="237.92" r="5.98"/><circle cx="599.87" cy="184.13" r="5.98"/><circle cx="578.48" cy="166.31" r="5.98"/><circle cx="561.13" cy="170.78" r="5.98"/><circle cx="534.2" cy="168.37" r="5.98"/><circle cx="519.61" cy="183.22" r="5.98"/><circle cx="497.69" cy="194.77" r="5.98"/><circle cx="494.89" cy="213.29" r="5.98"/><circle cx="469.48" cy="219.94" r="5.98"/><circle cx="482.31" cy="234.32" r="5.98"/><circle cx="502.96" cy="250.42" r="5.98"/><circle cx="522.38" cy="253.26" r="5.98"/><circle cx="564.42" cy="258.51" r="5.98"/><circle cx="459.64" cy="419.74" r="5.98"/><circle cx="477.1" cy="408.72" r="5.98"/><circle cx="494.02" cy="421.29" r="5.98"/><circle cx="507.45" cy="405.8" r="5.98"/><circle cx="522.69" cy="422.88" r="5.98"/><circle cx="532.7" cy="391.05" r="5.98"/><circle cx="508.83" cy="368.71" r="5.98"/><circle cx="502.42" cy="351.94" r="5.98"/><circle cx="525.72" cy="352.6" r="5.98"/><circle cx="529.14" cy="372.54" r="5.98"/><circle cx="545.57" cy="373.51" r="5.98"/><circle cx="536.17" cy="332" r="5.98"/><circle cx="531.9" cy="305.47" r="5.98"/><circle cx="500.19" cy="378.69" r="5.98"/><circle cx="481.87" cy="387.84" r="5.98"/><circle cx="454.38" cy="392.18" r="5.98"/><circle cx="446.3" cy="408.17" r="5.98"/><circle cx="426.74" cy="426.84" r="5.98"/><circle cx="374.84" cy="425.49" r="5.98"/><circle cx="391.44" cy="416.36" r="5.98"/><circle cx="499.3" cy="310.43" r="5.98"/><circle cx="543.78" cy="314.81" r="5.98"/><circle cx="512.66" cy="286.76" r="5.98"/><circle cx="553.73" cy="329.64" r="5.98"/><circle cx="548.53" cy="351.79" r="5.98"/><circle cx="572.89" cy="343.73" r="5.98"/><circle cx="518.22" cy="311.69" r="5.98"/><circle cx="501.19" cy="331.34" r="5.98"/><circle cx="447.25" cy="377.95" r="5.98"/><circle cx="472.97" cy="373.04" r="5.98"/><circle cx="487.91" cy="360.31" r="5.98"/><circle cx="519.57" cy="332.15" r="5.98"/><circle cx="483.02" cy="342.45" r="5.98"/><circle cx="415.02" cy="407.84" r="5.98"/><circle cx="434.09" cy="393.15" r="5.98"/><circle cx="467.86" cy="353.52" r="5.98"/><circle cx="599.86" cy="112.03" r="5.98"/><circle cx="597.06" cy="130.55" r="5.98"/><circle cx="571.66" cy="137.2" r="5.98"/><circle cx="584.49" cy="151.58" r="5.98"/></g></svg>